<?xml version="1.0" standalone="no"?>
<!DOCTYPE svg PUBLIC "-//W3C//DTD SVG 20010904//EN"
 "http://www.w3.org/TR/2001/REC-SVG-20010904/DTD/svg10.dtd">
<svg version="1.0" xmlns="http://www.w3.org/2000/svg"
 width="250.000000pt" height="234.000000pt" viewBox="0 0 250.000000 234.000000"
 preserveAspectRatio="xMidYMid meet">

<g transform="translate(0.000000,234.000000) scale(0.100000,-0.100000)"
fill="#000000" stroke="none">
<path d="M1408 1978 c-8 -21 2 -38 22 -38 19 0 30 17 23 38 -3 6 -13 12 -23
12 -10 0 -20 -6 -22 -12z"/>
<path d="M1004 1927 c-31 -28 -36 -38 -36 -79 0 -78 42 -118 123 -118 33 0 48
7 75 34 29 29 34 41 34 81 0 40 -5 52 -34 81 -29 29 -41 34 -80 34 -38 0 -52
-6 -82 -33z"/>
<path d="M1525 1949 c-4 -5 -4 -21 -1 -35 5 -20 12 -25 33 -22 34 4 51 31 34
52 -15 18 -56 21 -66 5z"/>
<path d="M738 1851 c-27 -24 -33 -36 -33 -71 0 -35 6 -47 33 -71 45 -40 84
-39 128 5 25 25 34 43 34 66 0 23 -9 42 -34 66 -44 44 -83 45 -128 5z"/>
<path d="M1334 1870 c-54 -21 -72 -105 -34 -153 27 -34 78 -44 118 -23 111 57
31 223 -84 176z"/>
<path d="M1680 1850 c-26 -26 -25 -51 1 -84 26 -33 70 -35 99 -4 24 26 26 56
4 86 -20 29 -76 30 -104 2z"/>
<path d="M565 1688 c-28 -16 -35 -28 -35 -65 0 -56 69 -84 110 -43 29 29 26
74 -6 99 -30 24 -41 25 -69 9z"/>
<path d="M1560 1693 c-73 -26 -60 -133 15 -133 39 0 79 44 70 78 -10 43 -49
68 -85 55z"/>
<path d="M1844 1690 c-53 -21 -72 -105 -34 -153 40 -51 126 -43 155 14 45 86
-33 175 -121 139z"/>
<path d="M1063 1663 c-7 -3 -13 -13 -13 -23 0 -19 17 -30 38 -23 6 3 12 13 12
23 0 19 -17 30 -37 23z"/>
<path d="M924 1632 c-35 -24 -15 -76 27 -70 16 2 25 10 27 26 6 38 -26 64 -54
44z"/>
<path d="M742 1550 c-53 -22 -46 -104 11 -124 22 -8 32 -6 55 11 39 29 42 74
6 102 -29 23 -38 24 -72 11z"/>
<path d="M450 1485 c-26 -32 13 -81 48 -59 34 22 22 74 -18 74 -10 0 -23 -7
-30 -15z"/>
<path d="M1662 1488 c-25 -25 -6 -68 30 -68 9 0 22 9 28 20 22 40 -26 80 -58
48z"/>
<path d="M1895 1424 c-47 -23 -65 -53 -65 -106 0 -66 37 -108 100 -114 26 -3
55 1 69 8 87 47 83 177 -6 214 -42 18 -61 17 -98 -2z"/>
<path d="M557 1356 c-33 -31 -43 -68 -27 -107 17 -39 46 -59 90 -59 44 0 73
20 90 59 25 62 -22 131 -90 131 -25 0 -45 -8 -63 -24z"/>
<path d="M413 1334 c-3 -8 -1 -20 5 -26 16 -16 42 -2 42 22 0 24 -38 28 -47 4z"/>
<path d="M1707 1343 c-12 -11 -7 -33 8 -39 20 -8 45 13 38 32 -5 14 -34 19
-46 7z"/>
<path d="M1817 1095 c-31 -32 -38 -64 -21 -103 40 -96 184 -69 184 34 0 81
-106 126 -163 69z"/>
<path d="M473 1075 c-33 -33 -35 -38 -31 -87 4 -42 11 -57 37 -80 57 -51 158
-31 187 37 18 44 18 59 -2 101 -20 42 -59 64 -115 64 -34 0 -47 -6 -76 -35z"/>
<path d="M754 995 c-4 -9 -2 -21 4 -27 15 -15 44 -1 40 19 -4 23 -36 29 -44 8z"/>
<path d="M2044 995 c-8 -20 4 -35 27 -35 14 0 19 7 19 25 0 18 -5 25 -20 25
-11 0 -23 -7 -26 -15z"/>
<path d="M784 876 c-9 -23 -1 -48 19 -60 26 -16 62 27 47 55 -13 22 -58 26
-66 5z"/>
<path d="M1681 864 c-25 -32 -26 -52 -5 -82 11 -16 25 -22 54 -22 29 0 43 6
54 22 51 73 -48 151 -103 82z"/>
<path d="M1991 872 c-16 -29 20 -72 46 -56 11 7 18 23 18 40 0 24 -5 30 -27
32 -18 2 -30 -3 -37 -16z"/>
<path d="M562 785 c-57 -48 -50 -120 16 -158 56 -33 128 6 139 75 5 33 2 41
-30 73 -43 43 -82 46 -125 10z"/>
<path d="M877 732 c-22 -25 -21 -75 1 -95 23 -21 76 -22 96 -1 22 21 20 77 -2
97 -25 22 -75 21 -95 -1z"/>
<path d="M1527 743 c-26 -26 12 -80 47 -67 21 8 30 42 16 59 -13 15 -51 20
-63 8z"/>
<path d="M1860 730 c-24 -24 -26 -57 -4 -88 11 -16 25 -22 54 -22 29 0 43 6
54 22 21 30 20 50 -5 82 -25 32 -70 35 -99 6z"/>
<path d="M1410 685 c-15 -18 -5 -35 20 -35 10 0 22 5 25 10 7 11 -12 40 -25
40 -4 0 -13 -7 -20 -15z"/>
<path d="M1064 596 c-47 -47 -46 -86 1 -133 31 -31 40 -35 72 -30 87 15 119
111 55 168 -45 40 -84 39 -128 -5z"/>
<path d="M1651 614 c-97 -68 -18 -218 90 -174 31 13 59 55 59 89 0 76 -89 127
-149 85z"/>
<path d="M1364 575 c-86 -44 -84 -169 4 -211 47 -22 98 -12 137 26 25 26 30
38 30 80 0 42 -5 54 -31 81 -38 37 -94 47 -140 24z"/>
<path d="M734 562 c-6 -4 -16 -17 -22 -29 -34 -64 71 -131 112 -71 34 48 7
108 -47 108 -18 0 -37 -4 -43 -8z"/>
<path d="M916 408 c-21 -30 -4 -60 32 -56 30 3 42 39 22 64 -17 20 -36 17 -54
-8z"/>
<path d="M1052 348 c4 -30 43 -33 43 -3 0 13 -8 21 -23 23 -20 3 -23 0 -20
-20z"/>
</g>
</svg>
